<?xml version="1.0" encoding="UTF-8" standalone="no"?>
<!-- Created with Inkscape (http://www.inkscape.org/) -->

<svg
   version="1.1"
   id="svg2"
   width="1122.52"
   height="793.70135"
   viewBox="0 0 1122.52 793.70135"
   sodipodi:docname="paradis_du_hobby.ai"
   xmlns:inkscape="http://www.inkscape.org/namespaces/inkscape"
   xmlns:sodipodi="http://sodipodi.sourceforge.net/DTD/sodipodi-0.dtd"
   xmlns="http://www.w3.org/2000/svg"
   xmlns:svg="http://www.w3.org/2000/svg">
  <defs
     id="defs6">
    <clipPath
       clipPathUnits="userSpaceOnUse"
       id="clipPath16">
      <path
         d="M 0,595.276 H 841.89 V 0 H 0 Z"
         id="path14" />
    </clipPath>
  </defs>
  <sodipodi:namedview
     id="namedview4"
     pagecolor="#ffffff"
     bordercolor="#000000"
     borderopacity="0.25"
     inkscape:showpageshadow="2"
     inkscape:pageopacity="0.0"
     inkscape:pagecheckerboard="0"
     inkscape:deskcolor="#d1d1d1" />
  <g
     id="g8"
     inkscape:groupmode="layer"
     inkscape:label="paradis_du_hobby"
     transform="matrix(1.3333333,0,0,-1.3333333,0,793.70133)">
    <g
       id="g10">
      <g
         id="g12"
         clip-path="url(#clipPath16)">
        <g
           id="g18"
           transform="translate(325.1343,346.6631)">
          <path
             d="m 0,0 v 0.131 c 14.146,0 28.294,-0.118 42.439,0.03 17.927,0.189 35.88,-0.664 53.776,0.697 12,0.913 21.941,6.08 27.974,16.873 5.124,9.166 6.801,19.217 5.447,29.661 -3.475,26.815 -29.566,44.463 -53.88,32.698 -4.765,-2.305 -7.657,-0.677 -8.749,4.642 -1.514,7.372 -4.278,14.246 -7.953,20.768 -16.36,29.041 -50.709,41.118 -81.255,28.465 -14.35,-5.945 -24.637,-16.436 -32.215,-29.767 -2.732,-4.807 -4.441,-5.367 -9.449,-2.838 -0.902,0.456 -1.799,0.923 -2.715,1.348 -19.565,9.074 -43.331,3.532 -56.958,-13.177 -11.129,-13.647 -15.139,-29.209 -12.189,-46.427 4.438,-25.9 25.385,-43.881 50.851,-43.261 C -56.6,0.531 -28.293,0 0,0 m 0.259,-10.211 c -28.416,0 -56.832,0.073 -85.248,-0.025 -21.244,-0.073 -37.773,8.691 -49.616,26.197 -19.139,28.289 -13.291,67.527 13.558,88.582 17.03,13.355 36.155,15.852 56.428,8.342 3.165,-1.173 4.556,-0.514 6.348,2.166 12.168,18.199 28.854,29.869 50.648,33.31 17.769,2.806 34.33,-1.213 49.56,-10.645 2.203,-1.365 3.44,-1.422 5.418,0.521 27.357,26.853 59.842,43.444 98.035,48.276 39.883,5.046 77.056,-3.221 110.7,-24.937 42.994,-27.751 69.527,-67.013 78.492,-117.689 1.452,-8.206 1.976,-16.523 1.806,-24.875 -0.105,-5.2 -1.481,-7.21 -5.125,-7.132 -3.425,0.073 -5.018,2.202 -5.016,6.996 0.006,19.445 -3.869,38.16 -11.138,56.109 -16.59,40.962 -45.135,70.714 -85.205,89.225 -23.184,10.71 -47.619,15.255 -73.215,13.784 -39.205,-2.253 -72.651,-17.53 -101.276,-44.009 -4.231,-3.914 -4.15,-3.871 -0.288,-8.217 2.597,-2.92 5.205,-5.879 7.381,-9.108 1.979,-2.937 3.302,-3.214 5.979,-0.595 11.094,10.847 23.656,19.658 37.717,26.312 17.212,8.144 35.238,12.593 54.331,13.245 26.958,0.919 52.124,-5.103 75.161,-19.035 34.978,-21.152 56.84,-51.907 65.704,-91.837 2.03,-9.146 2.867,-18.444 2.962,-27.796 0.035,-3.488 -2.37,-6.025 -5.24,-5.7 -3.287,0.373 -4.79,2.493 -4.769,5.749 0.002,0.378 -0.016,0.757 -0.018,1.136 -0.126,16.37 -3.436,32.104 -9.692,47.197 -12.452,30.044 -33.202,52.564 -62.334,66.938 -33.327,16.445 -67.713,17.71 -102.479,4.967 -17.785,-6.519 -33.185,-17.006 -46.496,-30.536 -1.814,-1.844 -2.514,-3.508 -1.337,-6 1.339,-2.838 1.572,-6.728 3.68,-8.53 2.347,-2.007 5.837,0.804 8.893,1.062 1.509,0.127 3.069,0.447 4.531,0.21 7.043,-1.145 12.197,2.137 17.729,6.072 40.437,28.763 95.391,24.931 130.54,-9.136 20.187,-19.567 30.119,-43.811 30.839,-71.87 0.016,-0.631 -0.009,-1.263 -0.004,-1.894 0.022,-3.188 -1.673,-5.015 -4.71,-5.364 -2.755,-0.317 -4.905,2.036 -4.963,5.46 -0.202,11.859 -2.094,23.44 -6.71,34.355 -14.871,35.164 -41.604,54.355 -79.546,57.392 -20.94,1.677 -40.288,-3.868 -57.818,-15.531 -4.005,-2.664 -3.947,-2.988 -0.008,-5.418 18.745,-11.565 27.09,-28.492 25.827,-50.34 C 139.486,23.528 134.985,11.469 124.631,2.187 115.064,-6.391 103.414,-9.86 90.812,-9.925 60.628,-10.082 30.443,-9.976 0.259,-9.976 Z"
             style="fill:#000000;fill-opacity:1;fill-rule:nonzero;stroke:none"
             id="path20" />
        </g>
        <g
           id="g22"
           transform="translate(619.2627,197.3896)">
          <path
             d="m 0,0 c 5.55,0.006 11.076,0.095 16.623,0.687 19.245,2.054 33.514,14.974 37.044,34.028 0.874,4.713 1.208,9.5 0.941,14.319 C 53.592,67.415 44.549,78.177 26.664,82.28 16.721,84.563 6.618,84.348 -3.481,84.447 -6.765,84.48 -7.748,83.261 -7.997,80.063 -9.989,54.53 -12.131,29.01 -14.328,3.494 -14.567,0.711 -13.576,-0.118 -10.984,-0.035 -7.326,0.083 -3.661,-0.005 0,0 m -5.253,-7.033 c -5.549,0 -9.845,0.106 -14.131,-0.041 -2.479,-0.085 -3.306,0.671 -3.09,3.259 2.523,30.04 4.984,60.086 7.352,90.138 0.263,3.333 1.153,4.837 4.931,4.756 C 2.918,90.797 16.054,91.382 29.057,89.016 48.952,85.396 61.019,74.547 62.842,53.244 64.505,33.811 59.833,16.909 43.707,4.585 35.063,-2.021 24.979,-5.136 14.282,-6.312 7.379,-7.07 0.437,-7.258 -5.253,-7.033"
             style="fill:#000000;fill-opacity:1;fill-rule:nonzero;stroke:none"
             id="path24" />
        </g>
        <g
           id="g26"
           transform="translate(619.2627,197.3896)">
          <path
             d="m 0,0 c 5.55,0.006 11.076,0.095 16.623,0.687 19.245,2.054 33.514,14.974 37.044,34.028 0.874,4.713 1.208,9.5 0.941,14.319 C 53.592,67.415 44.549,78.177 26.664,82.28 16.721,84.563 6.618,84.348 -3.481,84.447 -6.765,84.48 -7.748,83.261 -7.997,80.063 -9.989,54.53 -12.131,29.01 -14.328,3.494 -14.567,0.711 -13.576,-0.118 -10.984,-0.035 -7.326,0.083 -3.661,-0.005 0,0 Z m -5.253,-7.033 c -5.549,0 -9.845,0.106 -14.131,-0.041 -2.479,-0.085 -3.306,0.671 -3.09,3.259 2.523,30.04 4.984,60.086 7.352,90.138 0.263,3.333 1.153,4.837 4.931,4.756 C 2.918,90.797 16.054,91.382 29.057,89.016 48.952,85.396 61.019,74.547 62.842,53.244 64.505,33.811 59.833,16.909 43.707,4.585 35.063,-2.021 24.979,-5.136 14.282,-6.312 7.379,-7.07 0.437,-7.258 -5.253,-7.033 Z"
             style="fill:none;stroke:#000000;stroke-width:1;stroke-linecap:butt;stroke-linejoin:miter;stroke-miterlimit:10;stroke-dasharray:none;stroke-opacity:1"
             id="path28" />
        </g>
        <g
           id="g30"
           transform="translate(434.6299,242.5332)">
          <path
             d="m 0,0 c 7.942,0.111 15.932,-0.011 23.396,3.351 8.86,3.989 13.066,11.951 11.485,21.563 -1.283,7.803 -7.105,12.457 -16.772,13.677 -8.926,1.127 -17.88,0.394 -26.816,0.651 -2.351,0.068 -3.469,-0.944 -3.643,-3.277 -0.807,-10.807 -1.641,-21.611 -2.513,-32.412 -0.215,-2.654 0.97,-3.634 3.518,-3.575 C -7.565,0.063 -3.782,0 0,0 M 43.437,23.218 C 43.424,10.978 36.241,2.158 23.515,-1.608 22.309,-1.966 21.043,-2.13 19.852,-2.522 c -0.541,-0.179 -1.259,-0.623 -1.38,-1.082 -0.173,-0.657 0.537,-1.064 1.169,-1.24 8.478,-2.347 11.445,-9.322 13.838,-16.668 2.852,-8.75 5.577,-17.543 8.204,-26.363 0.382,-1.284 2.225,-3.082 -0.215,-4.207 -2.563,-1.181 -6.757,0.144 -7.396,2.267 -1.673,5.56 -3.206,11.163 -4.858,16.729 -1.473,4.96 -2.891,9.944 -4.582,14.83 -2.676,7.726 -8.298,11.437 -16.427,11.461 -6.692,0.02 -13.389,-0.089 -20.073,0.149 -3.179,0.112 -4.184,-1.225 -4.407,-4.129 -0.958,-12.458 -2.047,-24.906 -3.067,-37.359 -0.309,-3.78 -2.367,-5.13 -6.045,-4.008 -1.997,0.61 -1.431,2.198 -1.339,3.438 0.781,10.566 1.627,21.128 2.496,31.686 1.148,13.954 2.337,27.902 3.502,41.853 0.515,6.159 1.052,12.316 1.491,18.48 0.119,1.676 0.663,2.564 2.478,2.531 13.237,-0.247 26.528,0.859 39.678,-1.467 5.268,-0.933 10.323,-2.547 14.38,-6.284 4.454,-4.104 6.41,-9.254 6.138,-14.877"
             style="fill:#000000;fill-opacity:1;fill-rule:nonzero;stroke:none"
             id="path32" />
        </g>
        <g
           id="g34"
           transform="translate(434.6299,242.5332)">
          <path
             d="m 0,0 c 7.942,0.111 15.932,-0.011 23.396,3.351 8.86,3.989 13.066,11.951 11.485,21.563 -1.283,7.803 -7.105,12.457 -16.772,13.677 -8.926,1.127 -17.88,0.394 -26.816,0.651 -2.351,0.068 -3.469,-0.944 -3.643,-3.277 -0.807,-10.807 -1.641,-21.611 -2.513,-32.412 -0.215,-2.654 0.97,-3.634 3.518,-3.575 C -7.565,0.063 -3.782,0 0,0 Z M 43.437,23.218 C 43.424,10.978 36.241,2.158 23.515,-1.608 22.309,-1.966 21.043,-2.13 19.852,-2.522 c -0.541,-0.179 -1.259,-0.623 -1.38,-1.082 -0.173,-0.657 0.537,-1.064 1.169,-1.24 8.478,-2.347 11.445,-9.322 13.838,-16.668 2.852,-8.75 5.577,-17.543 8.204,-26.363 0.382,-1.284 2.225,-3.082 -0.215,-4.207 -2.563,-1.181 -6.757,0.144 -7.396,2.267 -1.673,5.56 -3.206,11.163 -4.858,16.729 -1.473,4.96 -2.891,9.944 -4.582,14.83 -2.676,7.726 -8.298,11.437 -16.427,11.461 -6.692,0.02 -13.389,-0.089 -20.073,0.149 -3.179,0.112 -4.184,-1.225 -4.407,-4.129 -0.958,-12.458 -2.047,-24.906 -3.067,-37.359 -0.309,-3.78 -2.367,-5.13 -6.045,-4.008 -1.997,0.61 -1.431,2.198 -1.339,3.438 0.781,10.566 1.627,21.128 2.496,31.686 1.148,13.954 2.337,27.902 3.502,41.853 0.515,6.159 1.052,12.316 1.491,18.48 0.119,1.676 0.663,2.564 2.478,2.531 13.237,-0.247 26.528,0.859 39.678,-1.467 5.268,-0.933 10.323,-2.547 14.38,-6.284 4.454,-4.104 6.41,-9.254 6.138,-14.877 z"
             style="fill:none;stroke:#000000;stroke-width:1;stroke-linecap:butt;stroke-linejoin:miter;stroke-miterlimit:10;stroke-dasharray:none;stroke-opacity:1"
             id="path36" />
        </g>
        <g
           id="g38"
           transform="translate(351.2544,283.7344)">
          <path
             d="m 0,0 c -1.039,-0.265 -1.236,-1.189 -1.568,-1.983 -7.494,-17.948 -16.618,-35.124 -24.889,-52.704 -1.855,-3.942 -1.707,-4.21 2.636,-4.221 12.375,-0.032 24.751,-0.031 37.127,-0.018 4.608,0.006 4.681,0.162 3.298,4.818 C 11.578,-37.194 6.561,-20.277 1.543,-3.36 1.191,-2.171 1.072,-0.878 0,0 m 32.928,-93.388 c -2.792,-0.73 -3.815,1.096 -4.658,3.699 -2.408,7.436 -5.118,14.774 -7.525,22.21 -0.784,2.422 -1.993,3.422 -4.591,3.406 -14.522,-0.093 -29.046,-0.088 -43.568,-0.001 -2.495,0.014 -3.906,-0.866 -4.947,-3.136 -3.523,-7.685 -7.221,-15.29 -10.848,-22.927 -1.374,-2.891 -5.249,-4.462 -8.139,-3.159 -1.994,0.899 -0.444,2.202 -0.014,3.09 4.183,8.636 8.468,17.222 12.725,25.821 10.864,21.95 21.853,43.84 32.495,65.898 2.265,4.695 5.886,2.63 9.058,3.084 2.973,0.425 2.977,-2.162 3.578,-3.947 10.064,-29.891 20.102,-59.792 30.126,-89.696 1.459,-4.355 1.411,-4.371 -3.692,-4.342"
             style="fill:#000000;fill-opacity:1;fill-rule:nonzero;stroke:none"
             id="path40" />
        </g>
        <g
           id="g42"
           transform="translate(351.2544,283.7344)">
          <path
             d="m 0,0 c -1.039,-0.265 -1.236,-1.189 -1.568,-1.983 -7.494,-17.948 -16.618,-35.124 -24.889,-52.704 -1.855,-3.942 -1.707,-4.21 2.636,-4.221 12.375,-0.032 24.751,-0.031 37.127,-0.018 4.608,0.006 4.681,0.162 3.298,4.818 C 11.578,-37.194 6.561,-20.277 1.543,-3.36 1.191,-2.171 1.072,-0.878 0,0 Z m 32.928,-93.388 c -2.792,-0.73 -3.815,1.096 -4.658,3.699 -2.408,7.436 -5.118,14.774 -7.525,22.21 -0.784,2.422 -1.993,3.422 -4.591,3.406 -14.522,-0.093 -29.046,-0.088 -43.568,-0.001 -2.495,0.014 -3.906,-0.866 -4.947,-3.136 -3.523,-7.685 -7.221,-15.29 -10.848,-22.927 -1.374,-2.891 -5.249,-4.462 -8.139,-3.159 -1.994,0.899 -0.444,2.202 -0.014,3.09 4.183,8.636 8.468,17.222 12.725,25.821 10.864,21.95 21.853,43.84 32.495,65.898 2.265,4.695 5.886,2.63 9.058,3.084 2.973,0.425 2.977,-2.162 3.578,-3.947 10.064,-29.891 20.102,-59.792 30.126,-89.696 1.459,-4.355 1.411,-4.371 -3.692,-4.342 z"
             style="fill:none;stroke:#000000;stroke-width:1;stroke-linecap:butt;stroke-linejoin:miter;stroke-miterlimit:10;stroke-dasharray:none;stroke-opacity:1"
             id="path44" />
        </g>
        <g
           id="g46"
           transform="translate(536.2158,224.8213)">
          <path
             d="m 0,0 v 0.012 c 6.435,0 12.87,0.078 19.302,-0.034 3.009,-0.053 3.719,0.944 2.841,3.853 C 16.861,21.314 11.713,38.837 6.494,56.339 6.227,57.235 6.26,58.642 5.069,58.698 3.888,58.755 3.677,57.355 3.315,56.483 -4.111,38.523 -13.224,21.359 -21.479,3.791 -23.062,0.424 -22.828,0.044 -18.924,0.014 -12.616,-0.036 -6.308,0 0,0 m 38.233,-34.469 c -2.71,-0.744 -3.903,0.848 -4.764,3.549 -2.336,7.33 -5.05,14.54 -7.339,21.883 -0.916,2.938 -2.451,3.912 -5.449,3.887 -14.267,-0.12 -28.535,-0.108 -42.803,-0.006 -2.682,0.018 -4.066,-1.008 -5.156,-3.399 -3.558,-7.801 -7.317,-15.511 -11.029,-23.242 -1.057,-2.204 -6.506,-3.888 -8.415,-2.534 -1.352,0.96 -0.169,2.039 0.27,2.936 3.819,7.822 7.678,15.625 11.552,23.42 11.233,22.602 22.641,45.119 33.588,67.857 2.277,4.729 5.707,3.417 9.118,3.67 3.394,0.252 3.244,-2.603 3.914,-4.586 10.013,-29.66 19.985,-59.335 29.961,-89.008 1.473,-4.382 1.434,-4.424 -3.448,-4.427"
             style="fill:#000000;fill-opacity:1;fill-rule:nonzero;stroke:none"
             id="path48" />
        </g>
        <g
           id="g50"
           transform="translate(536.2158,224.8213)">
          <path
             d="m 0,0 v 0.012 c 6.435,0 12.87,0.078 19.302,-0.034 3.009,-0.053 3.719,0.944 2.841,3.853 C 16.861,21.314 11.713,38.837 6.494,56.339 6.227,57.235 6.26,58.642 5.069,58.698 3.888,58.755 3.677,57.355 3.315,56.483 -4.111,38.523 -13.224,21.359 -21.479,3.791 -23.062,0.424 -22.828,0.044 -18.924,0.014 -12.616,-0.036 -6.308,0 0,0 Z m 38.233,-34.469 c -2.71,-0.744 -3.903,0.848 -4.764,3.549 -2.336,7.33 -5.05,14.54 -7.339,21.883 -0.916,2.938 -2.451,3.912 -5.449,3.887 -14.267,-0.12 -28.535,-0.108 -42.803,-0.006 -2.682,0.018 -4.066,-1.008 -5.156,-3.399 -3.558,-7.801 -7.317,-15.511 -11.029,-23.242 -1.057,-2.204 -6.506,-3.888 -8.415,-2.534 -1.352,0.96 -0.169,2.039 0.27,2.936 3.819,7.822 7.678,15.625 11.552,23.42 11.233,22.602 22.641,45.119 33.588,67.857 2.277,4.729 5.707,3.417 9.118,3.67 3.394,0.252 3.244,-2.603 3.914,-4.586 10.013,-29.66 19.985,-59.335 29.961,-89.008 1.473,-4.382 1.434,-4.424 -3.448,-4.427 z"
             style="fill:none;stroke:#000000;stroke-width:1;stroke-linecap:butt;stroke-linejoin:miter;stroke-miterlimit:10;stroke-dasharray:none;stroke-opacity:1"
             id="path52" />
        </g>
        <g
           id="g54"
           transform="translate(140.9243,190.3623)">
          <path
             d="m 0,0 c -8.334,0 -16.672,0.135 -25.001,-0.069 -3.141,-0.077 -3.942,1.053 -3.695,3.96 1.134,13.325 2.118,26.664 3.222,39.992 1.396,16.849 2.925,33.687 4.218,50.545 0.21,2.731 0.947,3.66 3.777,3.638 16.163,-0.126 32.327,-0.048 48.49,-0.081 1.617,-0.003 3.833,0.683 3.576,-2.352 -0.208,-2.455 -0.636,-4.302 -3.901,-4.269 -13.005,0.136 -26.012,0.058 -39.018,0.051 -5.914,-0.003 -5.84,-0.017 -6.284,-6.055 -0.647,-8.808 -1.487,-17.602 -2.099,-26.412 -0.369,-5.307 -0.229,-5.36 4.976,-5.367 12.122,-0.016 24.245,0.031 36.367,-0.048 1.473,-0.01 3.929,0.948 3.711,-2.146 -0.175,-2.501 -0.526,-4.48 -4.079,-4.418 -12.621,0.218 -25.249,0.003 -37.872,0.15 -3.048,0.036 -4.293,-1.001 -4.506,-3.999 -0.771,-10.824 -1.602,-21.645 -2.587,-32.452 -0.264,-2.897 0.654,-3.726 3.492,-3.704 14.269,0.11 28.54,-0.058 42.806,0.125 3.459,0.044 4.06,-1.313 3.701,-4.263 C 29.017,0.549 27.893,-0.054 25.76,-0.033 17.174,0.049 8.586,0.001 0,0"
             style="fill:#000000;fill-opacity:1;fill-rule:nonzero;stroke:none"
             id="path56" />
        </g>
        <g
           id="g58"
           transform="translate(140.9243,190.3623)">
          <path
             d="m 0,0 c -8.334,0 -16.672,0.135 -25.001,-0.069 -3.141,-0.077 -3.942,1.053 -3.695,3.96 1.134,13.325 2.118,26.664 3.222,39.992 1.396,16.849 2.925,33.687 4.218,50.545 0.21,2.731 0.947,3.66 3.777,3.638 16.163,-0.126 32.327,-0.048 48.49,-0.081 1.617,-0.003 3.833,0.683 3.576,-2.352 -0.208,-2.455 -0.636,-4.302 -3.901,-4.269 -13.005,0.136 -26.012,0.058 -39.018,0.051 -5.914,-0.003 -5.84,-0.017 -6.284,-6.055 -0.647,-8.808 -1.487,-17.602 -2.099,-26.412 -0.369,-5.307 -0.229,-5.36 4.976,-5.367 12.122,-0.016 24.245,0.031 36.367,-0.048 1.473,-0.01 3.929,0.948 3.711,-2.146 -0.175,-2.501 -0.526,-4.48 -4.079,-4.418 -12.621,0.218 -25.249,0.003 -37.872,0.15 -3.048,0.036 -4.293,-1.001 -4.506,-3.999 -0.771,-10.824 -1.602,-21.645 -2.587,-32.452 -0.264,-2.897 0.654,-3.726 3.492,-3.704 14.269,0.11 28.54,-0.058 42.806,0.125 3.459,0.044 4.06,-1.313 3.701,-4.263 C 29.017,0.549 27.893,-0.054 25.76,-0.033 17.174,0.049 8.586,0.001 0,0 Z"
             style="fill:none;stroke:#000000;stroke-width:1;stroke-linecap:butt;stroke-linejoin:miter;stroke-miterlimit:10;stroke-dasharray:none;stroke-opacity:1"
             id="path60" />
        </g>
        <g
           id="g62"
           transform="translate(262.041,238.2041)">
          <path
             d="m 0,0 c 3.679,0.047 8.615,-0.276 13.48,0.635 2.224,0.416 4.459,0.91 6.593,1.647 10.845,3.748 16.195,12.48 14.925,24.174 -0.978,9.006 -7.892,14.883 -18.981,16.368 -8.291,1.111 -16.611,0.655 -24.923,0.771 -2.092,0.029 -3.296,-0.682 -3.458,-2.979 -0.88,-12.445 -1.809,-24.887 -2.777,-37.327 -0.196,-2.534 0.947,-3.37 3.318,-3.311 C -8.295,0.064 -4.763,0 0,0 M -4.24,50.162 C 4.857,50.229 13.954,50.138 22.849,47.922 33.107,45.365 41.181,40.093 42.913,28.856 44.714,17.17 41.059,7.414 30.802,0.708 23.957,-3.769 16.279,-5.731 8.267,-6.239 1.848,-6.646 -4.606,-6.483 -11.045,-6.557 c -5.044,-0.057 -5.085,-0.197 -5.495,-5.362 -0.848,-10.696 -1.787,-21.387 -2.755,-32.073 -0.314,-3.467 -3.605,-5.209 -6.642,-3.687 -1.387,0.697 -1.013,1.941 -0.931,2.987 0.769,9.806 1.589,19.609 2.412,29.411 1.172,13.95 2.378,27.897 3.533,41.848 0.572,6.913 1.117,13.829 1.555,20.752 0.13,2.063 0.898,2.921 3.006,2.869 4.038,-0.099 8.081,-0.029 12.122,-0.026"
             style="fill:#000000;fill-opacity:1;fill-rule:nonzero;stroke:none"
             id="path64" />
        </g>
        <g
           id="g66"
           transform="translate(262.041,238.2041)">
          <path
             d="m 0,0 c 3.679,0.047 8.615,-0.276 13.48,0.635 2.224,0.416 4.459,0.91 6.593,1.647 10.845,3.748 16.195,12.48 14.925,24.174 -0.978,9.006 -7.892,14.883 -18.981,16.368 -8.291,1.111 -16.611,0.655 -24.923,0.771 -2.092,0.029 -3.296,-0.682 -3.458,-2.979 -0.88,-12.445 -1.809,-24.887 -2.777,-37.327 -0.196,-2.534 0.947,-3.37 3.318,-3.311 C -8.295,0.064 -4.763,0 0,0 Z M -4.24,50.162 C 4.857,50.229 13.954,50.138 22.849,47.922 33.107,45.365 41.181,40.093 42.913,28.856 44.714,17.17 41.059,7.414 30.802,0.708 23.957,-3.769 16.279,-5.731 8.267,-6.239 1.848,-6.646 -4.606,-6.483 -11.045,-6.557 c -5.044,-0.057 -5.085,-0.197 -5.495,-5.362 -0.848,-10.696 -1.787,-21.387 -2.755,-32.073 -0.314,-3.467 -3.605,-5.209 -6.642,-3.687 -1.387,0.697 -1.013,1.941 -0.931,2.987 0.769,9.806 1.589,19.609 2.412,29.411 1.172,13.95 2.378,27.897 3.533,41.848 0.572,6.913 1.117,13.829 1.555,20.752 0.13,2.063 0.898,2.921 3.006,2.869 4.038,-0.099 8.081,-0.029 12.122,-0.026 z"
             style="fill:none;stroke:#000000;stroke-width:1;stroke-linecap:butt;stroke-linejoin:miter;stroke-miterlimit:10;stroke-dasharray:none;stroke-opacity:1"
             id="path68" />
        </g>
        <g
           id="g70"
           transform="translate(782.5156,290.0361)">
          <path
             d="m 0,0 c 5.923,0.018 13.205,-1.424 19.748,-5.894 2.684,-1.834 2.448,-3.484 0.858,-5.892 -1.8,-2.728 -2.96,-0.402 -4.254,0.296 -12.524,6.743 -25.293,6.89 -37.698,0.305 -11.154,-5.92 -11.819,-19.026 -1.897,-26.874 4.721,-3.733 10.321,-5.791 15.774,-8.124 6.722,-2.876 13.655,-5.313 19.663,-9.661 13.534,-9.793 14.065,-28.114 0.118,-37.286 -14.177,-9.323 -29.846,-10.928 -45.844,-4.183 -3.533,1.491 -6.337,4.082 -8.921,6.909 -1.845,2.016 -0.492,3.413 0.711,4.909 1.707,2.122 2.565,0.113 3.528,-0.794 8.664,-8.155 19.257,-8.646 30.179,-7.472 6.098,0.657 11.887,2.403 16.514,6.779 7.254,6.86 7.151,17.385 -0.253,24.094 -3.712,3.365 -8.22,5.348 -12.788,7.232 -7.341,3.026 -14.865,5.595 -21.849,9.497 -17.115,9.559 -14.885,30.852 -0.325,39.649 C -19.044,-1.863 -10.693,0.039 0,0"
             style="fill:#000000;fill-opacity:1;fill-rule:nonzero;stroke:none"
             id="path72" />
        </g>
        <g
           id="g74"
           transform="translate(782.5156,290.0361)">
          <path
             d="m 0,0 c 5.923,0.018 13.205,-1.424 19.748,-5.894 2.684,-1.834 2.448,-3.484 0.858,-5.892 -1.8,-2.728 -2.96,-0.402 -4.254,0.296 -12.524,6.743 -25.293,6.89 -37.698,0.305 -11.154,-5.92 -11.819,-19.026 -1.897,-26.874 4.721,-3.733 10.321,-5.791 15.774,-8.124 6.722,-2.876 13.655,-5.313 19.663,-9.661 13.534,-9.793 14.065,-28.114 0.118,-37.286 -14.177,-9.323 -29.846,-10.928 -45.844,-4.183 -3.533,1.491 -6.337,4.082 -8.921,6.909 -1.845,2.016 -0.492,3.413 0.711,4.909 1.707,2.122 2.565,0.113 3.528,-0.794 8.664,-8.155 19.257,-8.646 30.179,-7.472 6.098,0.657 11.887,2.403 16.514,6.779 7.254,6.86 7.151,17.385 -0.253,24.094 -3.712,3.365 -8.22,5.348 -12.788,7.232 -7.341,3.026 -14.865,5.595 -21.849,9.497 -17.115,9.559 -14.885,30.852 -0.325,39.649 C -19.044,-1.863 -10.693,0.039 0,0 Z"
             style="fill:none;stroke:#000000;stroke-width:1;stroke-linecap:butt;stroke-linejoin:miter;stroke-miterlimit:10;stroke-dasharray:none;stroke-opacity:1"
             id="path76" />
        </g>
        <g
           id="g78"
           transform="translate(63.7749,190.3623)">
          <path
             d="m 0,0 c -8.204,0 -16.41,0.094 -24.611,-0.053 -2.705,-0.049 -3.585,0.869 -3.349,3.501 1.215,13.55 2.361,27.107 3.5,40.663 0.865,10.295 1.693,20.593 2.518,30.891 0.544,6.782 1.153,13.561 1.537,20.352 0.224,3.972 3.097,2.317 5.023,2.624 2.492,0.396 2.982,-1.05 2.805,-3.181 -0.846,-10.172 -1.634,-20.35 -2.457,-30.524 -1.179,-14.57 -2.367,-29.14 -3.557,-43.71 -0.225,-2.762 -0.556,-5.518 -0.7,-8.285 C -19.562,7.047 -19.52,7.027 -14.439,7.022 -1.566,7.01 11.308,7.056 24.182,6.962 25.86,6.949 28.521,8.18 28.471,4.536 28.426,1.34 27.54,-0.222 23.851,-0.089 15.91,0.198 7.951,0 0,0"
             style="fill:#000000;fill-opacity:1;fill-rule:nonzero;stroke:none"
             id="path80" />
        </g>
        <g
           id="g82"
           transform="translate(63.7749,190.3623)">
          <path
             d="m 0,0 c -8.204,0 -16.41,0.094 -24.611,-0.053 -2.705,-0.049 -3.585,0.869 -3.349,3.501 1.215,13.55 2.361,27.107 3.5,40.663 0.865,10.295 1.693,20.593 2.518,30.891 0.544,6.782 1.153,13.561 1.537,20.352 0.224,3.972 3.097,2.317 5.023,2.624 2.492,0.396 2.982,-1.05 2.805,-3.181 -0.846,-10.172 -1.634,-20.35 -2.457,-30.524 -1.179,-14.57 -2.367,-29.14 -3.557,-43.71 -0.225,-2.762 -0.556,-5.518 -0.7,-8.285 C -19.562,7.047 -19.52,7.027 -14.439,7.022 -1.566,7.01 11.308,7.056 24.182,6.962 25.86,6.949 28.521,8.18 28.471,4.536 28.426,1.34 27.54,-0.222 23.851,-0.089 15.91,0.198 7.951,0 0,0 Z"
             style="fill:none;stroke:#000000;stroke-width:1;stroke-linecap:butt;stroke-linejoin:miter;stroke-miterlimit:10;stroke-dasharray:none;stroke-opacity:1"
             id="path84" />
        </g>
        <g
           id="g86"
           transform="translate(703.4297,196.0059)">
          <path
             d="m 0,0 c 1.437,17.083 2.877,34.164 4.304,51.247 1.05,12.562 2.26,25.113 3.023,37.692 0.249,4.117 2.668,3.384 5.111,3.434 3.418,0.069 2.629,-2.421 2.482,-4.273 C 13.197,66.46 11.412,44.825 9.641,23.189 8.971,15.014 8.082,6.848 7.711,-1.342 7.537,-5.159 5.941,-5.887 2.563,-5.735 -1.228,-5.565 0.195,-3.015 0.003,-1.137 -0.036,-0.762 -0.003,-0.38 0,0"
             style="fill:#000000;fill-opacity:1;fill-rule:nonzero;stroke:none"
             id="path88" />
        </g>
        <g
           id="g90"
           transform="translate(703.4297,196.0059)">
          <path
             d="m 0,0 c 1.437,17.083 2.877,34.164 4.304,51.247 1.05,12.562 2.26,25.113 3.023,37.692 0.249,4.117 2.668,3.384 5.111,3.434 3.418,0.069 2.629,-2.421 2.482,-4.273 C 13.197,66.46 11.412,44.825 9.641,23.189 8.971,15.014 8.082,6.848 7.711,-1.342 7.537,-5.159 5.941,-5.887 2.563,-5.735 -1.228,-5.565 0.195,-3.015 0.003,-1.137 -0.036,-0.762 -0.003,-0.38 0,0 Z"
             style="fill:none;stroke:#000000;stroke-width:1;stroke-linecap:butt;stroke-linejoin:miter;stroke-miterlimit:10;stroke-dasharray:none;stroke-opacity:1"
             id="path92" />
        </g>
        <g
           id="g94"
           transform="translate(507.2236,151.2119)">
          <path
             d="M 0,0 C 5.322,0.027 7.317,1.498 7.274,5.026 7.232,8.406 5.1,9.585 0.234,9.939 -4.493,10.283 -3.761,7.336 -3.932,4.425 -4.128,1.084 -3.242,-0.734 0,0 m 1.209,-1.701 c -1.753,-0.714 -4.559,1.055 -4.957,-2.077 -0.346,-2.711 -0.093,-5.501 -0.083,-8.256 0.004,-0.985 0.446,-1.757 1.478,-1.851 3.125,-0.286 6.308,-0.516 9.165,1.061 2.032,1.121 2.828,3.101 2.663,5.421 -0.181,2.532 -1.578,4.232 -3.897,5.005 -1.396,0.464 -2.94,0.485 -4.369,0.697 m -7.117,-0.104 c 0,3.405 -0.029,6.808 0.014,10.21 0.016,1.227 -0.156,2.847 1.571,2.968 3.37,0.237 6.843,0.754 10.077,-0.565 C 9.572,9.25 10.785,5.271 8.425,1.771 7.239,0.013 6.911,-0.799 8.854,-2.371 c 4.601,-3.726 3.38,-10.328 -2.123,-12.478 -3.516,-1.373 -7.219,-0.819 -10.855,-0.72 -1.774,0.048 -1.755,1.548 -1.77,2.798 -0.041,3.656 -0.014,7.311 -0.014,10.966"
             style="fill:#000000;fill-opacity:1;fill-rule:nonzero;stroke:none"
             id="path96" />
        </g>
        <g
           id="g98"
           transform="translate(507.2236,151.2119)">
          <path
             d="M 0,0 C 5.322,0.027 7.317,1.498 7.274,5.026 7.232,8.406 5.1,9.585 0.234,9.939 -4.493,10.283 -3.761,7.336 -3.932,4.425 -4.128,1.084 -3.242,-0.734 0,0 Z m 1.209,-1.701 c -1.753,-0.714 -4.559,1.055 -4.957,-2.077 -0.346,-2.711 -0.093,-5.501 -0.083,-8.256 0.004,-0.985 0.446,-1.757 1.478,-1.851 3.125,-0.286 6.308,-0.516 9.165,1.061 2.032,1.121 2.828,3.101 2.663,5.421 -0.181,2.532 -1.578,4.232 -3.897,5.005 -1.396,0.464 -2.94,0.485 -4.369,0.697 z m -7.117,-0.104 c 0,3.405 -0.029,6.808 0.014,10.21 0.016,1.227 -0.156,2.847 1.571,2.968 3.37,0.237 6.843,0.754 10.077,-0.565 C 9.572,9.25 10.785,5.271 8.425,1.771 7.239,0.013 6.911,-0.799 8.854,-2.371 c 4.601,-3.726 3.38,-10.328 -2.123,-12.478 -3.516,-1.373 -7.219,-0.819 -10.855,-0.72 -1.774,0.048 -1.755,1.548 -1.77,2.798 -0.041,3.656 -0.014,7.311 -0.014,10.966 z"
             style="fill:none;stroke:#000000;stroke-width:2;stroke-linecap:butt;stroke-linejoin:miter;stroke-miterlimit:10;stroke-dasharray:none;stroke-opacity:1"
             id="path100" />
        </g>
        <g
           id="g102"
           transform="translate(561.1699,151.2119)">
          <path
             d="M 0,0 C 5.143,0.01 7.532,1.608 7.658,4.813 7.787,8.106 5.199,9.656 0.326,9.933 -3.75,10.164 -4.041,7.997 -4.038,4.836 -4.035,1.598 -3.66,-0.813 0,0 m -3.96,-7.804 c -0.011,-6.006 0.158,-6.254 4.278,-6.269 6.173,-0.023 9.501,2.153 9.503,6.215 0.003,3.92 -3.028,5.981 -8.84,6.009 -4.898,0.025 -4.931,-0.015 -4.941,-5.955 m -1.862,5.848 c 0.001,3.534 0.079,7.07 -0.029,10.602 -0.064,2.124 0.78,3.001 2.878,2.898 2.141,-0.106 4.303,0.056 6.429,-0.161 5.184,-0.529 7.66,-5.198 4.9,-9.613 -1.198,-1.916 -1.157,-2.693 0.581,-4.211 4.606,-4.028 3.05,-10.759 -2.755,-12.591 -3.317,-1.047 -6.757,-0.614 -10.155,-0.572 -1.814,0.021 -1.852,1.346 -1.851,2.666 10e-4,3.661 0,7.322 0.002,10.982"
             style="fill:#000000;fill-opacity:1;fill-rule:nonzero;stroke:none"
             id="path104" />
        </g>
        <g
           id="g106"
           transform="translate(561.1699,151.2119)">
          <path
             d="M 0,0 C 5.143,0.01 7.532,1.608 7.658,4.813 7.787,8.106 5.199,9.656 0.326,9.933 -3.75,10.164 -4.041,7.997 -4.038,4.836 -4.035,1.598 -3.66,-0.813 0,0 Z m -3.96,-7.804 c -0.011,-6.006 0.158,-6.254 4.278,-6.269 6.173,-0.023 9.501,2.153 9.503,6.215 0.003,3.92 -3.028,5.981 -8.84,6.009 -4.898,0.025 -4.931,-0.015 -4.941,-5.955 z m -1.862,5.848 c 0.001,3.534 0.079,7.07 -0.029,10.602 -0.064,2.124 0.78,3.001 2.878,2.898 2.141,-0.106 4.303,0.056 6.429,-0.161 5.184,-0.529 7.66,-5.198 4.9,-9.613 -1.198,-1.916 -1.157,-2.693 0.581,-4.211 4.606,-4.028 3.05,-10.759 -2.755,-12.591 -3.317,-1.047 -6.757,-0.614 -10.155,-0.572 -1.814,0.021 -1.852,1.346 -1.851,2.666 10e-4,3.661 0,7.322 0.002,10.982 z"
             style="fill:none;stroke:#000000;stroke-width:2;stroke-linecap:butt;stroke-linejoin:miter;stroke-miterlimit:10;stroke-dasharray:none;stroke-opacity:1"
             id="path108" />
        </g>
        <g
           id="g110"
           transform="translate(216.9897,149.082)">
          <path
             d="m 0,0 h 0.015 c 0,-2.901 -0.008,-5.802 0.003,-8.703 0.005,-1.489 0.252,-2.769 2.167,-2.901 5.158,-0.358 9.845,0.46 13.068,5.055 2.573,3.666 2.703,9.125 0.269,12.853 -3.146,4.82 -7.923,5.82 -13.229,5.563 C 0.463,11.778 -0.012,10.666 -0.004,9.081 0.011,6.054 0,3.027 0,0 M 4.007,13.674 C 12.042,13.553 17.655,9.495 18.832,2.956 20.42,-5.866 14.739,-12.896 5.536,-13.498 c -7.448,-0.486 -7.448,-0.486 -7.448,6.927 0,4.79 -0.002,9.58 10e-4,14.369 0.005,5.964 0.007,5.964 5.918,5.876"
             style="fill:#000000;fill-opacity:1;fill-rule:nonzero;stroke:none"
             id="path112" />
        </g>
        <g
           id="g114"
           transform="translate(216.9897,149.082)">
          <path
             d="m 0,0 h 0.015 c 0,-2.901 -0.008,-5.802 0.003,-8.703 0.005,-1.489 0.252,-2.769 2.167,-2.901 5.158,-0.358 9.845,0.46 13.068,5.055 2.573,3.666 2.703,9.125 0.269,12.853 -3.146,4.82 -7.923,5.82 -13.229,5.563 C 0.463,11.778 -0.012,10.666 -0.004,9.081 0.011,6.054 0,3.027 0,0 Z M 4.007,13.674 C 12.042,13.553 17.655,9.495 18.832,2.956 20.42,-5.866 14.739,-12.896 5.536,-13.498 c -7.448,-0.486 -7.448,-0.486 -7.448,6.927 0,4.79 -0.002,9.58 10e-4,14.369 0.005,5.964 0.007,5.964 5.918,5.876 z"
             style="fill:none;stroke:#000000;stroke-width:2;stroke-linecap:butt;stroke-linejoin:miter;stroke-miterlimit:10;stroke-dasharray:none;stroke-opacity:1"
             id="path116" />
        </g>
        <g
           id="g118"
           transform="translate(432.8545,149.3857)">
          <path
             d="m 0,0 c -0.034,-6.678 5.266,-12.252 11.777,-12.387 6.661,-0.138 12.47,5.421 12.6,12.059 0.131,6.622 -5.518,12.304 -12.27,12.343 C 5.563,12.052 0.033,6.564 0,0 m 25.993,-0.004 c 0.053,-7.95 -5.779,-13.913 -13.698,-14.006 -7.849,-0.093 -14.056,5.885 -14.157,13.633 -0.103,7.845 6.222,14.318 13.98,14.31 7.72,-0.01 13.823,-6.141 13.875,-13.937"
             style="fill:#000000;fill-opacity:1;fill-rule:nonzero;stroke:none"
             id="path120" />
        </g>
        <g
           id="g122"
           transform="translate(432.8545,149.3857)">
          <path
             d="m 0,0 c -0.034,-6.678 5.266,-12.252 11.777,-12.387 6.661,-0.138 12.47,5.421 12.6,12.059 0.131,6.622 -5.518,12.304 -12.27,12.343 C 5.563,12.052 0.033,6.564 0,0 Z m 25.993,-0.004 c 0.053,-7.95 -5.779,-13.913 -13.698,-14.006 -7.849,-0.093 -14.056,5.885 -14.157,13.633 -0.103,7.845 6.222,14.318 13.98,14.31 7.72,-0.01 13.823,-6.141 13.875,-13.937 z"
             style="fill:none;stroke:#000000;stroke-width:2;stroke-linecap:butt;stroke-linejoin:miter;stroke-miterlimit:10;stroke-dasharray:none;stroke-opacity:1"
             id="path124" />
        </g>
        <g
           id="g126"
           transform="translate(276.6436,162.2871)">
          <path
             d="m 0,0 c 1.447,-0.791 0.833,-2.209 0.853,-3.359 0.081,-4.92 -0.039,-9.846 0.105,-14.764 0.132,-4.546 3.14,-7.169 7.952,-7.227 5.003,-0.06 8.188,2.621 8.319,7.279 0.138,4.918 0.019,9.843 0.073,14.764 0.012,1.15 -0.421,2.511 1.119,3.519 1.188,-1.725 0.636,-3.528 0.666,-5.183 0.079,-4.416 0.17,-8.842 -0.043,-13.249 -0.261,-5.39 -3.615,-8.457 -9.055,-8.674 -6.459,-0.257 -10.354,2.361 -10.755,8.021 -0.418,5.9 -0.13,11.852 -0.141,17.78 0,0.553 0.292,0.938 0.907,1.093"
             style="fill:#000000;fill-opacity:1;fill-rule:nonzero;stroke:none"
             id="path128" />
        </g>
        <g
           id="g130"
           transform="translate(276.6436,162.2871)">
          <path
             d="m 0,0 c 1.447,-0.791 0.833,-2.209 0.853,-3.359 0.081,-4.92 -0.039,-9.846 0.105,-14.764 0.132,-4.546 3.14,-7.169 7.952,-7.227 5.003,-0.06 8.188,2.621 8.319,7.279 0.138,4.918 0.019,9.843 0.073,14.764 0.012,1.15 -0.421,2.511 1.119,3.519 1.188,-1.725 0.636,-3.528 0.666,-5.183 0.079,-4.416 0.17,-8.842 -0.043,-13.249 -0.261,-5.39 -3.615,-8.457 -9.055,-8.674 -6.459,-0.257 -10.354,2.361 -10.755,8.021 -0.418,5.9 -0.13,11.852 -0.141,17.78 0,0.553 0.292,0.938 0.907,1.093 z"
             style="fill:none;stroke:#000000;stroke-width:2;stroke-linecap:butt;stroke-linejoin:miter;stroke-miterlimit:10;stroke-dasharray:none;stroke-opacity:1"
             id="path132" />
        </g>
        <g
           id="g134"
           transform="translate(372.0884,162.623)">
          <path
             d="m 0,0 c 1.516,-2.913 0.816,-5.835 0.739,-8.574 -0.089,-3.158 1.035,-4.133 4.135,-4.156 9.483,-0.071 9.478,-0.179 9.788,9.135 0.033,0.987 -0.163,2.037 0.578,2.895 1.591,-2.028 1.852,-22.155 0.175,-26.02 -1.338,2.997 -0.679,5.879 -0.706,8.635 -0.025,2.724 -0.989,3.73 -3.783,3.798 -9.833,0.241 -9.82,0.331 -10.113,-9.434 -0.031,-1.046 0.449,-2.333 -0.97,-2.959 C -1.618,-23.871 -1.62,-3.128 0,0"
             style="fill:#000000;fill-opacity:1;fill-rule:nonzero;stroke:none"
             id="path136" />
        </g>
        <g
           id="g138"
           transform="translate(372.0884,162.623)">
          <path
             d="m 0,0 c 1.516,-2.913 0.816,-5.835 0.739,-8.574 -0.089,-3.158 1.035,-4.133 4.135,-4.156 9.483,-0.071 9.478,-0.179 9.788,9.135 0.033,0.987 -0.163,2.037 0.578,2.895 1.591,-2.028 1.852,-22.155 0.175,-26.02 -1.338,2.997 -0.679,5.879 -0.706,8.635 -0.025,2.724 -0.989,3.73 -3.783,3.798 -9.833,0.241 -9.82,0.331 -10.113,-9.434 -0.031,-1.046 0.449,-2.333 -0.97,-2.959 C -1.618,-23.871 -1.62,-3.128 0,0 Z"
             style="fill:none;stroke:#000000;stroke-width:2;stroke-linecap:butt;stroke-linejoin:miter;stroke-miterlimit:10;stroke-dasharray:none;stroke-opacity:1"
             id="path140" />
        </g>
        <g
           id="g142"
           transform="translate(614.9785,135.5479)">
          <path
             d="m 0,0 c -1.899,5.276 0.864,10.521 -2.209,14.847 -2.732,3.847 -5.47,7.691 -8.282,11.644 2.088,0.983 2.519,-0.403 3.117,-1.21 1.878,-2.535 3.73,-5.096 5.465,-7.732 1.42,-2.158 2.587,-1.98 3.934,0.036 1.615,2.413 3.296,4.783 5.01,7.126 0.707,0.966 1.163,2.344 3.762,2.12 C 7.769,22.564 5.004,18.687 2.258,14.798 -0.782,10.492 2.048,5.235 0,0"
             style="fill:#000000;fill-opacity:1;fill-rule:nonzero;stroke:none"
             id="path144" />
        </g>
        <g
           id="g146"
           transform="translate(614.9785,135.5479)">
          <path
             d="m 0,0 c -1.899,5.276 0.864,10.521 -2.209,14.847 -2.732,3.847 -5.47,7.691 -8.282,11.644 2.088,0.983 2.519,-0.403 3.117,-1.21 1.878,-2.535 3.73,-5.096 5.465,-7.732 1.42,-2.158 2.587,-1.98 3.934,0.036 1.615,2.413 3.296,4.783 5.01,7.126 0.707,0.966 1.163,2.344 3.762,2.12 C 7.769,22.564 5.004,18.687 2.258,14.798 -0.782,10.492 2.048,5.235 0,0 Z"
             style="fill:none;stroke:#000000;stroke-width:2;stroke-linecap:butt;stroke-linejoin:miter;stroke-miterlimit:10;stroke-dasharray:none;stroke-opacity:1"
             id="path148" />
        </g>
      </g>
    </g>
  </g>
</svg>
